<svg width="21" height="21" viewBox="0 0 21 21" fill="none" xmlns="http://www.w3.org/2000/svg">
<mask id="mask0_246_430" style="mask-type:alpha" maskUnits="userSpaceOnUse" x="0" y="0" width="21" height="21">
<rect x="0.419739" y="0.0119629" width="20" height="20" fill="#D9D9D9"/>
</mask>
<g mask="url(#mask0_246_430)">
<path d="M10.4377 9.19155C12.3612 9.19155 13.9533 8.89947 15.2141 8.3153C16.4751 7.73113 17.1056 7.05162 17.1056 6.27676C17.1056 5.48787 16.4755 4.80419 15.2154 4.22572C13.9553 3.64738 12.3625 3.35822 10.4371 3.35822C8.51151 3.35822 6.91866 3.64738 5.65852 4.22572C4.39838 4.80419 3.76831 5.48787 3.76831 6.27676C3.76831 7.05162 4.39901 7.73113 5.66039 8.3153C6.92178 8.89947 8.51421 9.19155 10.4377 9.19155ZM10.4198 10.4734C11.1409 10.4734 11.8571 10.4193 12.5683 10.3109C13.2797 10.2025 13.9346 10.0434 14.5331 9.83363C15.1317 9.62405 15.6567 9.36842 16.1081 9.06676C16.5595 8.76523 16.892 8.43391 17.1056 8.0728V10.5255C16.892 10.899 16.5589 11.2359 16.1064 11.5363C15.6539 11.8368 15.1291 12.0929 14.5319 12.3047C13.9346 12.5166 13.2803 12.6763 12.5687 12.7836C11.8572 12.891 11.1391 12.9447 10.4146 12.9447C9.69317 12.9447 8.97949 12.8904 8.27352 12.782C7.56755 12.6735 6.91539 12.5149 6.31706 12.3061C5.71873 12.0974 5.19644 11.8433 4.75019 11.5438C4.30394 11.2444 3.97664 10.905 3.76831 10.5255V8.0728C3.97664 8.44683 4.30532 8.78356 4.75435 9.08301C5.20338 9.38245 5.72519 9.63669 6.31977 9.84572C6.91421 10.0549 7.56449 10.2118 8.2706 10.3165C8.97671 10.4211 9.6931 10.4734 10.4198 10.4734ZM10.4146 14.2268C11.1391 14.2268 11.8571 14.1725 12.5683 14.064C13.2797 13.9556 13.9346 13.7965 14.5331 13.587C15.1317 13.3772 15.6567 13.1219 16.1081 12.8209C16.5595 12.5198 16.892 12.182 17.1056 11.8076V14.2628C16.892 14.6228 16.5589 14.9533 16.1064 15.2543C15.6539 15.5552 15.1291 15.8116 14.5319 16.0234C13.9346 16.2354 13.2803 16.395 12.5687 16.5024C11.8572 16.6097 11.1391 16.6634 10.4146 16.6634C9.69317 16.6634 8.97908 16.6118 8.27227 16.5084C7.5656 16.405 6.91428 16.2481 6.31831 16.038C5.72248 15.8279 5.2006 15.5722 4.75269 15.2711C4.30477 14.9702 3.97664 14.634 3.76831 14.2628V11.8076C3.97664 12.1869 4.30449 12.5262 4.75185 12.8255C5.19921 13.1248 5.72137 13.3782 6.31831 13.5857C6.91526 13.7934 7.56685 13.9521 8.2731 14.062C8.97935 14.1718 9.69317 14.2268 10.4146 14.2268Z" fill="#3B40B5"/>
</g>
</svg>
