<svg width="191" height="40" viewBox="0 0 191 40" fill="none" xmlns="http://www.w3.org/2000/svg">
<g id="Group">
<path id="Vector" d="M20.6531 0.5C30.7337 0.5 40.7556 8.13125 40.7556 20.2857C40.7556 32.4217 30.7545 39.5 20.6531 39.5C10.5675 39.5 1.02997 32.4357 1.02997 20.2857C1.02997 8.11687 10.588 0.5 20.6531 0.5Z" fill="#2B1DCB" stroke="black"/>
<path id="Vector_2" d="M1 22.8571H7.47114L12.5043 8.28571L17.7771 22.5714L22.5705 34L28.0829 22.8571H40.7855" stroke="black"/>
<path id="Vector_3" d="M42.2835 25.8488V0H42.9795V25.8488H42.2835ZM45.0675 25.8488V0H45.7635V25.8488H45.0675ZM46.4595 25.8488V0H47.1555V25.8488H46.4595ZM49.2434 25.8488V0H49.9394V25.8488H49.2434ZM52.0274 25.8488V0H52.7234V25.8488H52.0274ZM53.4194 25.8488V0H54.1154V25.8488H53.4194ZM54.8114 25.8488V0H56.8994V25.8488H54.8114ZM57.5954 25.8488V0H58.2914V25.8488H57.5954ZM60.3793 25.8488V0H61.0753V25.8488H60.3793ZM61.7713 25.8488V0H63.8593V25.8488H61.7713ZM53.5586 40C53.3266 40 53.1101 39.8978 52.909 39.6933C52.708 39.4888 52.5378 39.2114 52.3986 38.8609L52.1666 39.8247H51.7722V29.0033H52.4914V29.0909C52.4605 29.1785 52.4373 29.2516 52.4218 29.31C52.4064 29.3976 52.3986 29.529 52.3986 29.7043V33.5159C52.5378 33.107 52.7157 32.7856 52.9322 32.552C53.1488 32.3184 53.3653 32.2015 53.5818 32.2015C54.0768 32.2015 54.4712 32.5227 54.765 33.1654C55.0589 33.8371 55.2058 34.7864 55.2058 36.0131C55.2058 36.8601 55.1285 37.5904 54.9738 38.2037C54.8192 38.8171 54.6104 39.2697 54.3474 39.5619C54.1 39.854 53.837 40 53.5586 40ZM53.489 38.9485C53.7984 38.9485 54.0536 38.7149 54.2546 38.2475C54.4557 37.8094 54.5562 37.0939 54.5562 36.1008C54.5562 35.1369 54.4634 34.4214 54.2778 33.954C54.0768 33.4575 53.8138 33.2092 53.489 33.2092C53.1642 33.2092 52.9013 33.4866 52.7002 34.0416C52.4992 34.5674 52.3986 35.2683 52.3986 36.1446C52.3986 38.0139 52.7621 38.9485 53.489 38.9485ZM69.1944 25.8488V0H69.8904V25.8488H69.1944ZM71.9784 25.8488V0H72.6744V25.8488H71.9784ZM73.3704 25.8488V0H74.0664V25.8488H73.3704ZM76.1543 25.8488V0H76.8503V25.8488H76.1543ZM78.9383 25.8488V0H79.6343V25.8488H78.9383ZM80.3303 25.8488V0H81.0263V25.8488H80.3303ZM81.7223 25.8488V0H83.8103V25.8488H81.7223ZM84.5063 25.8488V0H85.2023V25.8488H84.5063ZM87.2902 25.8488V0H89.3782V25.8488H87.2902ZM90.0742 25.8488V0H90.7702V25.8488H90.0742ZM79.0311 38.8609H80.0519V33.3406H79.0775V32.3768H80.6551V38.8609H81.5831V39.8247H79.0311V38.8609ZM80.3303 30.7996C80.2065 30.7996 80.0983 30.7265 80.0055 30.5805C79.9281 30.4053 79.8895 30.2007 79.8895 29.9671C79.8895 29.7335 79.9281 29.5436 80.0055 29.3976C80.0828 29.2223 80.1911 29.1347 80.3303 29.1347C80.4385 29.1347 80.5391 29.2223 80.6319 29.3976C80.7247 29.5728 80.7711 29.7626 80.7711 29.9671C80.7711 30.2007 80.7247 30.4053 80.6319 30.5805C80.5391 30.7265 80.4385 30.7996 80.3303 30.7996ZM91.4652 25.8488V0H92.1612V25.8488H91.4652ZM94.2492 25.8488V0H94.9452V25.8488H94.2492ZM95.6412 25.8488V0H96.3372V25.8488H95.6412ZM98.4252 25.8488V0H99.1212V25.8488H98.4252ZM101.209 25.8488V0H101.905V25.8488H101.209ZM102.601 25.8488V0H104.689V25.8488H102.601ZM105.385 25.8488V0H106.081V25.8488H105.385ZM106.777 25.8488V0H108.865V25.8488H106.777ZM109.561 25.8488V0H110.257V25.8488H109.561ZM112.345 25.8488V0H113.041V25.8488H112.345ZM102.601 39.9562C102.245 39.9562 101.929 39.7955 101.65 39.4743C101.387 39.153 101.178 38.7002 101.024 38.1161C100.853 37.532 100.769 36.8601 100.769 36.1008C100.769 35.3414 100.853 34.6695 101.024 34.0854C101.178 33.5013 101.387 33.0485 101.65 32.7273C101.929 32.3768 102.245 32.2015 102.601 32.2015C102.957 32.2015 103.266 32.3768 103.529 32.7273C103.808 33.0485 104.024 33.5013 104.179 34.0854C104.333 34.6695 104.411 35.3414 104.411 36.1008C104.411 36.8601 104.333 37.532 104.179 38.1161C104.024 38.7002 103.808 39.153 103.529 39.4743C103.266 39.7955 102.957 39.9562 102.601 39.9562ZM102.601 38.9923C102.818 38.9923 103.019 38.8609 103.205 38.598C103.374 38.3644 103.514 38.0285 103.622 37.5904C103.715 37.123 103.761 36.612 103.761 36.0569C103.761 35.21 103.653 34.5235 103.437 33.9978C103.219 33.4721 102.941 33.2092 102.601 33.2092C102.261 33.2092 101.982 33.4721 101.766 33.9978C101.549 34.5235 101.441 35.21 101.441 36.0569C101.441 36.612 101.488 37.123 101.581 37.5904C101.688 38.0285 101.827 38.3644 101.998 38.598C102.168 38.8609 102.369 38.9923 102.601 38.9923ZM113.736 25.8488V0H115.824V25.8488H113.736ZM117.912 25.8488V0H118.608V25.8488H117.912ZM119.304 25.8488V0H120V25.8488H119.304ZM120.696 25.8488V0H122.784V25.8488H120.696ZM123.48 25.8488V0H124.176V25.8488H123.48ZM119.188 40C119.065 40 118.949 39.9124 118.84 39.7371C118.747 39.5326 118.701 39.3135 118.701 39.08C118.701 38.8171 118.747 38.598 118.84 38.4228C118.949 38.2475 119.065 38.1599 119.188 38.1599C119.327 38.1599 119.443 38.2475 119.536 38.4228C119.645 38.598 119.699 38.8171 119.699 39.08C119.699 39.3135 119.645 39.5326 119.536 39.7371C119.443 39.9124 119.327 40 119.188 40ZM124.883 25.8488V0H125.579V25.8488H124.883ZM127.667 25.8488V0H128.363V25.8488H127.667ZM129.059 25.8488V0H129.755V25.8488H129.059ZM131.843 25.8488V0H132.539V25.8488H131.843ZM134.627 25.8488V0H135.323V25.8488H134.627ZM136.019 25.8488V0H138.107V25.8488H136.019ZM140.195 25.8488V0H142.283V25.8488H140.195ZM142.979 25.8488V0H143.675V25.8488H142.979ZM144.371 25.8488V0H145.067V25.8488H144.371ZM145.763 25.8488V0H146.459V25.8488H145.763ZM134 32.3768H134.534L135.183 38.379L135.856 33.0778H136.227L137.063 38.3352C137.232 36.3198 137.334 34.9909 137.364 34.3483C137.411 33.7057 137.434 33.1361 137.434 32.6396V32.3768H138.014C137.844 34.8886 137.627 37.3713 137.364 39.8247H136.761L136.042 35.0055L135.346 39.8247H134.789L134 32.3768ZM147.153 25.8488V0H147.849V25.8488H147.153ZM149.937 25.8488V0H150.633V25.8488H149.937ZM151.329 25.8488V0H152.025V25.8488H151.329ZM154.113 25.8488V0H154.809V25.8488H154.113ZM156.897 25.8488V0H157.593V25.8488H156.897ZM158.289 25.8488V0H160.377V25.8488H158.289ZM161.073 25.8488V0H161.769V25.8488H161.073ZM162.465 25.8488V0H163.161V25.8488H162.465ZM165.249 25.8488V0H165.945V25.8488H165.249ZM166.641 25.8488V0H168.729V25.8488H166.641ZM158.243 32.2015C158.8 32.2015 159.226 32.4789 159.519 33.034C159.813 33.589 159.96 34.5381 159.96 35.8817V39.8247H159.287V38.6856C159.055 39.5619 158.607 40 157.941 40C157.509 40 157.168 39.8102 156.921 39.4304C156.674 39.0507 156.549 38.5542 156.549 37.9409C156.549 37.4151 156.642 36.9625 156.828 36.5827C156.999 36.2029 157.238 35.8962 157.547 35.6626C157.841 35.4581 158.173 35.356 158.545 35.356C158.869 35.356 159.164 35.3852 159.426 35.4436C159.396 34.6257 159.28 34.0416 159.078 33.6911C158.878 33.3406 158.584 33.1654 158.197 33.1654C157.996 33.1654 157.811 33.2385 157.64 33.3844C157.454 33.5304 157.284 33.7349 157.129 33.9978L156.828 33.253C157.199 32.552 157.671 32.2015 158.243 32.2015ZM158.011 39.1238C158.444 39.1238 158.785 38.8754 159.032 38.379C159.28 37.9116 159.411 37.2399 159.426 36.3636C159.164 36.276 158.885 36.2322 158.591 36.2322C158.159 36.2322 157.811 36.3782 157.547 36.6703C157.3 36.9332 157.176 37.342 157.176 37.897C157.176 38.7149 157.454 39.1238 158.011 39.1238ZM169.424 25.8488V0H170.12V25.8488H169.424ZM172.208 25.8488V0H172.904V25.8488H172.208ZM173.6 25.8488V0H174.296V25.8488H173.6ZM176.384 25.8488V0H177.08V25.8488H176.384ZM179.168 25.8488V0H179.864V25.8488H179.168ZM180.56 25.8488V0H181.256V25.8488H180.56ZM183.344 25.8488V0H185.432V25.8488H183.344ZM186.128 25.8488V0H186.824V25.8488H186.128ZM187.52 25.8488V0H188.216V25.8488H187.52ZM188.912 25.8488V0H191V25.8488H188.912ZM182.323 32.3768C182.23 33.253 182.037 34.3338 181.743 35.6188L180.792 39.8247H180.305L178.751 32.3768H179.377L180.583 38.2037L181.233 35.4436C181.497 34.3338 181.666 33.3114 181.743 32.3768H182.323Z" fill="#2B1DCB"/>
</g>
</svg>
