<svg width="190" height="40" viewBox="0 0 190 40" fill="none" xmlns="http://www.w3.org/2000/svg">
<g clip-path="url(#clip0_234_371)">
<path d="M19.7647 0.5C29.6612 0.5 39.5 8.13125 39.5 20.2857C39.5 32.4217 29.6816 39.5 19.7647 39.5C9.86329 39.5 0.5 32.4357 0.5 20.2857C0.5 8.11687 9.88344 0.5 19.7647 0.5Z" fill="#FF002E" stroke="black"/>
<path d="M0.470581 22.8571H6.82352L11.7647 8.28571L16.9412 22.5714L21.6471 34L27.0588 22.8571H39.5294" stroke="black"/>
<path d="M53.1426 22V9.02H53.8026V22H53.1426ZM55.7826 22V9.02H56.4426V22H55.7826ZM57.1026 22V9.02H57.7626V22H57.1026ZM59.7426 22V9.02H60.4026V22H59.7426ZM62.3826 22V9.02H63.0426V22H62.3826ZM63.7026 22V9.02H64.3626V22H63.7026ZM65.0226 22V9.02H67.0026V22H65.0226ZM67.6626 22V9.02H68.3226V22H67.6626ZM70.3026 22V9.02H70.9626V22H70.3026ZM71.6226 22V9.02H73.6026V22H71.6226ZM63.8346 29.106C63.6146 29.106 63.4092 29.0547 63.2186 28.952C63.0279 28.8493 62.8666 28.71 62.7346 28.534L62.5146 29.018H62.1406V23.584H62.8226V23.628C62.7932 23.672 62.7712 23.7087 62.7566 23.738C62.7419 23.782 62.7346 23.848 62.7346 23.936V25.85C62.8666 25.6447 63.0352 25.4833 63.2406 25.366C63.4459 25.2487 63.6512 25.19 63.8566 25.19C64.3259 25.19 64.6999 25.3513 64.9786 25.674C65.2572 26.0113 65.3966 26.488 65.3966 27.104C65.3966 27.5293 65.3232 27.896 65.1766 28.204C65.0299 28.512 64.8319 28.7393 64.5826 28.886C64.3479 29.0327 64.0986 29.106 63.8346 29.106ZM63.7686 28.578C64.0619 28.578 64.3039 28.4607 64.4946 28.226C64.6852 28.006 64.7806 27.6467 64.7806 27.148C64.7806 26.664 64.6926 26.3047 64.5166 26.07C64.3259 25.8207 64.0766 25.696 63.7686 25.696C63.4606 25.696 63.2112 25.8353 63.0206 26.114C62.8299 26.378 62.7346 26.73 62.7346 27.17C62.7346 28.1087 63.0792 28.578 63.7686 28.578ZM74.2617 22V9.02H74.9217V22H74.2617ZM76.9017 22V9.02H77.5617V22H76.9017ZM78.2217 22V9.02H78.8817V22H78.2217ZM80.8617 22V9.02H81.5217V22H80.8617ZM83.5017 22V9.02H84.1617V22H83.5017ZM84.8217 22V9.02H85.4817V22H84.8217ZM86.1417 22V9.02H88.1217V22H86.1417ZM88.7817 22V9.02H89.4417V22H88.7817ZM91.4217 22V9.02H93.4017V22H91.4217ZM94.0617 22V9.02H94.7217V22H94.0617ZM83.5897 28.534H84.5577V25.762H83.6337V25.278H85.1297V28.534H86.0097V29.018H83.5897V28.534ZM84.8217 24.486C84.7044 24.486 84.6017 24.4493 84.5137 24.376C84.4404 24.288 84.4037 24.1853 84.4037 24.068C84.4037 23.9507 84.4404 23.8553 84.5137 23.782C84.5871 23.694 84.6897 23.65 84.8217 23.65C84.9244 23.65 85.0197 23.694 85.1077 23.782C85.1957 23.87 85.2397 23.9653 85.2397 24.068C85.2397 24.1853 85.1957 24.288 85.1077 24.376C85.0197 24.4493 84.9244 24.486 84.8217 24.486ZM95.3809 22V9.02H96.0409V22H95.3809ZM98.0209 22V9.02H98.6809V22H98.0209ZM99.3409 22V9.02H100.001V22H99.3409ZM101.981 22V9.02H102.641V22H101.981ZM104.621 22V9.02H105.281V22H104.621ZM105.941 22V9.02H107.921V22H105.941ZM108.581 22V9.02H109.241V22H108.581ZM109.901 22V9.02H111.881V22H109.901ZM112.541 22V9.02H113.201V22H112.541ZM115.181 22V9.02H115.841V22H115.181ZM105.941 29.084C105.604 29.084 105.303 29.0033 105.039 28.842C104.79 28.6807 104.592 28.4533 104.445 28.16C104.284 27.8667 104.203 27.5293 104.203 27.148C104.203 26.7667 104.284 26.4293 104.445 26.136C104.592 25.8427 104.79 25.6153 105.039 25.454C105.303 25.278 105.604 25.19 105.941 25.19C106.278 25.19 106.572 25.278 106.821 25.454C107.085 25.6153 107.29 25.8427 107.437 26.136C107.584 26.4293 107.657 26.7667 107.657 27.148C107.657 27.5293 107.584 27.8667 107.437 28.16C107.29 28.4533 107.085 28.6807 106.821 28.842C106.572 29.0033 106.278 29.084 105.941 29.084ZM105.941 28.6C106.146 28.6 106.337 28.534 106.513 28.402C106.674 28.2847 106.806 28.116 106.909 27.896C106.997 27.6613 107.041 27.4047 107.041 27.126C107.041 26.7007 106.938 26.356 106.733 26.092C106.528 25.828 106.264 25.696 105.941 25.696C105.618 25.696 105.354 25.828 105.149 26.092C104.944 26.356 104.841 26.7007 104.841 27.126C104.841 27.4047 104.885 27.6613 104.973 27.896C105.076 28.116 105.208 28.2847 105.369 28.402C105.53 28.534 105.721 28.6 105.941 28.6ZM116.5 22V9.02H117.16V22H116.5ZM119.14 22V9.02H119.8V22H119.14ZM120.46 22V9.02H121.12V22H120.46ZM123.1 22V9.02H123.76V22H123.1ZM125.74 22V9.02H126.4V22H125.74ZM127.06 22V9.02H129.04V22H127.06ZM131.02 22V9.02H133V22H131.02ZM133.66 22V9.02H134.32V22H133.66ZM134.98 22V9.02H135.64V22H134.98ZM136.3 22V9.02H136.96V22H136.3ZM125.146 25.278H125.652L126.268 28.292L126.906 25.63H127.258L128.05 28.27C128.211 27.258 128.307 26.5907 128.336 26.268C128.38 25.9453 128.402 25.6593 128.402 25.41V25.278H128.952C128.791 26.5393 128.585 27.786 128.336 29.018H127.764L127.082 26.598L126.422 29.018H125.894L125.146 25.278ZM137.619 22V9.02H138.279V22H137.619ZM140.259 22V9.02H140.919V22H140.259ZM141.579 22V9.02H142.239V22H141.579ZM144.219 22V9.02H144.879V22H144.219ZM146.859 22V9.02H147.519V22H146.859ZM148.179 22V9.02H150.159V22H148.179ZM150.819 22V9.02H151.479V22H150.819ZM152.139 22V9.02H152.799V22H152.139ZM154.779 22V9.02H155.439V22H154.779ZM156.099 22V9.02H158.079V22H156.099ZM148.135 25.19C148.663 25.19 149.066 25.3293 149.345 25.608C149.624 25.8867 149.763 26.3633 149.763 27.038V29.018H149.125V28.446C148.905 28.886 148.48 29.106 147.849 29.106C147.438 29.106 147.116 29.0107 146.881 28.82C146.646 28.6293 146.529 28.38 146.529 28.072C146.529 27.808 146.617 27.5807 146.793 27.39C146.954 27.1993 147.182 27.0453 147.475 26.928C147.754 26.8253 148.069 26.774 148.421 26.774C148.729 26.774 149.008 26.7887 149.257 26.818C149.228 26.4073 149.118 26.114 148.927 25.938C148.736 25.762 148.458 25.674 148.091 25.674C147.9 25.674 147.724 25.7107 147.563 25.784C147.387 25.8573 147.226 25.96 147.079 26.092L146.793 25.718C147.145 25.366 147.592 25.19 148.135 25.19ZM147.915 28.666C148.326 28.666 148.648 28.5413 148.883 28.292C149.118 28.0573 149.242 27.72 149.257 27.28C149.008 27.236 148.744 27.214 148.465 27.214C148.054 27.214 147.724 27.2873 147.475 27.434C147.24 27.566 147.123 27.7713 147.123 28.05C147.123 28.4607 147.387 28.666 147.915 28.666ZM158.738 22V9.02H159.398V22H158.738ZM161.378 22V9.02H162.038V22H161.378ZM162.698 22V9.02H163.358V22H162.698ZM165.338 22V9.02H165.998V22H165.338ZM167.978 22V9.02H168.638V22H167.978ZM169.298 22V9.02H169.958V22H169.298ZM171.938 22V9.02H173.918V22H171.938ZM174.578 22V9.02H175.238V22H174.578ZM175.898 22V9.02H176.558V22H175.898ZM177.218 22V9.02H179.198V22H177.218ZM170.97 25.278C170.882 25.718 170.699 26.2607 170.42 26.906L169.518 29.018H169.056L167.582 25.278H168.176L169.32 28.204L169.936 26.818C170.186 26.2607 170.347 25.7473 170.42 25.278H170.97Z" fill="#FF002E"/>
</g>
<defs>
<clipPath id="clip0_234_371">
<rect width="190" height="40" fill="white"/>
</clipPath>
</defs>
</svg>
