<svg width="190" height="40" viewBox="0 0 190 40" fill="none" xmlns="http://www.w3.org/2000/svg">
<g clip-path="url(#clip0_63_262)">
<path d="M19.7647 0.5C29.6612 0.5 39.5 8.13125 39.5 20.2857C39.5 32.4217 29.6816 39.5 19.7647 39.5C9.86329 39.5 0.5 32.4357 0.5 20.2857C0.5 8.11687 9.88344 0.5 19.7647 0.5Z" fill="#606060" stroke="black"/>
<path d="M0.470581 22.8571H6.82352L11.7647 8.28571L16.9412 22.5714L21.6471 34L27.0588 22.8571H39.5294" stroke="black"/>
<path d="M45.6574 22V9.02H46.3174V22H45.6574ZM48.2974 22V9.02H48.9574V22H48.2974ZM49.6174 22V9.02H50.2774V22H49.6174ZM52.2574 22V9.02H52.9174V22H52.2574ZM54.8974 22V9.02H55.5574V22H54.8974ZM56.2174 22V9.02H56.8774V22H56.2174ZM57.5374 22V9.02H59.5174V22H57.5374ZM60.1774 22V9.02H60.8374V22H60.1774ZM62.8174 22V9.02H63.4774V22H62.8174ZM64.1374 22V9.02H66.1174V22H64.1374ZM56.3494 29.106C56.1294 29.106 55.9241 29.0547 55.7334 28.952C55.5428 28.8493 55.3814 28.71 55.2494 28.534L55.0294 29.018H54.6554V23.584H55.3374V23.628C55.3081 23.672 55.2861 23.7087 55.2714 23.738C55.2568 23.782 55.2494 23.848 55.2494 23.936V25.85C55.3814 25.6447 55.5501 25.4833 55.7554 25.366C55.9608 25.2487 56.1661 25.19 56.3714 25.19C56.8408 25.19 57.2148 25.3513 57.4934 25.674C57.7721 26.0113 57.9114 26.488 57.9114 27.104C57.9114 27.5293 57.8381 27.896 57.6914 28.204C57.5448 28.512 57.3468 28.7393 57.0974 28.886C56.8628 29.0327 56.6134 29.106 56.3494 29.106ZM56.2834 28.578C56.5768 28.578 56.8188 28.4607 57.0094 28.226C57.2001 28.006 57.2954 27.6467 57.2954 27.148C57.2954 26.664 57.2074 26.3047 57.0314 26.07C56.8408 25.8207 56.5914 25.696 56.2834 25.696C55.9754 25.696 55.7261 25.8353 55.5354 26.114C55.3448 26.378 55.2494 26.73 55.2494 27.17C55.2494 28.1087 55.5941 28.578 56.2834 28.578ZM71.1766 22V9.02H71.8366V22H71.1766ZM73.8166 22V9.02H74.4766V22H73.8166ZM75.1366 22V9.02H75.7966V22H75.1366ZM77.7766 22V9.02H78.4366V22H77.7766ZM80.4166 22V9.02H81.0766V22H80.4166ZM81.7366 22V9.02H82.3966V22H81.7366ZM83.0566 22V9.02H85.0366V22H83.0566ZM85.6966 22V9.02H86.3566V22H85.6966ZM88.3366 22V9.02H90.3166V22H88.3366ZM90.9766 22V9.02H91.6366V22H90.9766ZM80.5046 28.534H81.4726V25.762H80.5486V25.278H82.0446V28.534H82.9246V29.018H80.5046V28.534ZM81.7366 24.486C81.6192 24.486 81.5166 24.4493 81.4286 24.376C81.3552 24.288 81.3186 24.1853 81.3186 24.068C81.3186 23.9507 81.3552 23.8553 81.4286 23.782C81.5019 23.694 81.6046 23.65 81.7366 23.65C81.8392 23.65 81.9346 23.694 82.0226 23.782C82.1106 23.87 82.1546 23.9653 82.1546 24.068C82.1546 24.1853 82.1106 24.288 82.0226 24.376C81.9346 24.4493 81.8392 24.486 81.7366 24.486ZM92.2957 22V9.02H92.9557V22H92.2957ZM94.9357 22V9.02H95.5957V22H94.9357ZM96.2557 22V9.02H96.9157V22H96.2557ZM98.8957 22V9.02H99.5557V22H98.8957ZM101.536 22V9.02H102.196V22H101.536ZM102.856 22V9.02H104.836V22H102.856ZM105.496 22V9.02H106.156V22H105.496ZM106.816 22V9.02H108.796V22H106.816ZM109.456 22V9.02H110.116V22H109.456ZM112.096 22V9.02H112.756V22H112.096ZM102.856 29.084C102.518 29.084 102.218 29.0033 101.954 28.842C101.704 28.6807 101.506 28.4533 101.36 28.16C101.198 27.8667 101.118 27.5293 101.118 27.148C101.118 26.7667 101.198 26.4293 101.36 26.136C101.506 25.8427 101.704 25.6153 101.954 25.454C102.218 25.278 102.518 25.19 102.856 25.19C103.193 25.19 103.486 25.278 103.736 25.454C104 25.6153 104.205 25.8427 104.352 26.136C104.498 26.4293 104.572 26.7667 104.572 27.148C104.572 27.5293 104.498 27.8667 104.352 28.16C104.205 28.4533 104 28.6807 103.736 28.842C103.486 29.0033 103.193 29.084 102.856 29.084ZM102.856 28.6C103.061 28.6 103.252 28.534 103.428 28.402C103.589 28.2847 103.721 28.116 103.824 27.896C103.912 27.6613 103.956 27.4047 103.956 27.126C103.956 26.7007 103.853 26.356 103.648 26.092C103.442 25.828 103.178 25.696 102.856 25.696C102.533 25.696 102.269 25.828 102.064 26.092C101.858 26.356 101.756 26.7007 101.756 27.126C101.756 27.4047 101.8 27.6613 101.888 27.896C101.99 28.116 102.122 28.2847 102.284 28.402C102.445 28.534 102.636 28.6 102.856 28.6ZM113.415 22V9.02H115.395V22H113.415ZM117.375 22V9.02H118.035V22H117.375ZM118.695 22V9.02H119.355V22H118.695ZM120.015 22V9.02H121.995V22H120.015ZM122.655 22V9.02H123.315V22H122.655ZM118.585 29.106C118.468 29.106 118.358 29.062 118.255 28.974C118.167 28.8713 118.123 28.7613 118.123 28.644C118.123 28.512 118.167 28.402 118.255 28.314C118.358 28.226 118.468 28.182 118.585 28.182C118.717 28.182 118.827 28.226 118.915 28.314C119.018 28.402 119.069 28.512 119.069 28.644C119.069 28.7613 119.018 28.8713 118.915 28.974C118.827 29.062 118.717 29.106 118.585 29.106ZM123.985 22V9.02H124.645V22H123.985ZM126.625 22V9.02H127.285V22H126.625ZM127.945 22V9.02H128.605V22H127.945ZM130.585 22V9.02H131.245V22H130.585ZM133.225 22V9.02H133.885V22H133.225ZM134.545 22V9.02H136.525V22H134.545ZM138.505 22V9.02H140.485V22H138.505ZM141.145 22V9.02H141.805V22H141.145ZM142.465 22V9.02H143.125V22H142.465ZM143.785 22V9.02H144.445V22H143.785ZM132.631 25.278H133.137L133.753 28.292L134.391 25.63H134.743L135.535 28.27C135.696 27.258 135.792 26.5907 135.821 26.268C135.865 25.9453 135.887 25.6593 135.887 25.41V25.278H136.437C136.276 26.5393 136.07 27.786 135.821 29.018H135.249L134.567 26.598L133.907 29.018H133.379L132.631 25.278ZM145.104 22V9.02H145.764V22H145.104ZM147.744 22V9.02H148.404V22H147.744ZM149.064 22V9.02H149.724V22H149.064ZM151.704 22V9.02H152.364V22H151.704ZM154.344 22V9.02H155.004V22H154.344ZM155.664 22V9.02H157.644V22H155.664ZM158.304 22V9.02H158.964V22H158.304ZM159.624 22V9.02H160.284V22H159.624ZM162.264 22V9.02H162.924V22H162.264ZM163.584 22V9.02H165.564V22H163.584ZM155.62 25.19C156.148 25.19 156.552 25.3293 156.83 25.608C157.109 25.8867 157.248 26.3633 157.248 27.038V29.018H156.61V28.446C156.39 28.886 155.965 29.106 155.334 29.106C154.924 29.106 154.601 29.0107 154.366 28.82C154.132 28.6293 154.014 28.38 154.014 28.072C154.014 27.808 154.102 27.5807 154.278 27.39C154.44 27.1993 154.667 27.0453 154.96 26.928C155.239 26.8253 155.554 26.774 155.906 26.774C156.214 26.774 156.493 26.7887 156.742 26.818C156.713 26.4073 156.603 26.114 156.412 25.938C156.222 25.762 155.943 25.674 155.576 25.674C155.386 25.674 155.21 25.7107 155.048 25.784C154.872 25.8573 154.711 25.96 154.564 26.092L154.278 25.718C154.63 25.366 155.078 25.19 155.62 25.19ZM155.4 28.666C155.811 28.666 156.134 28.5413 156.368 28.292C156.603 28.0573 156.728 27.72 156.742 27.28C156.493 27.236 156.229 27.214 155.95 27.214C155.54 27.214 155.21 27.2873 154.96 27.434C154.726 27.566 154.608 27.7713 154.608 28.05C154.608 28.4607 154.872 28.666 155.4 28.666ZM166.223 22V9.02H166.883V22H166.223ZM168.863 22V9.02H169.523V22H168.863ZM170.183 22V9.02H170.843V22H170.183ZM172.823 22V9.02H173.483V22H172.823ZM175.463 22V9.02H176.123V22H175.463ZM176.783 22V9.02H177.443V22H176.783ZM179.423 22V9.02H181.403V22H179.423ZM182.063 22V9.02H182.723V22H182.063ZM183.383 22V9.02H184.043V22H183.383ZM184.703 22V9.02H186.683V22H184.703ZM178.455 25.278C178.367 25.718 178.184 26.2607 177.905 26.906L177.003 29.018H176.541L175.067 25.278H175.661L176.805 28.204L177.421 26.818C177.671 26.2607 177.832 25.7473 177.905 25.278H178.455Z" fill="black"/>
</g>
<defs>
<clipPath id="clip0_63_262">
<rect width="190" height="40" fill="white"/>
</clipPath>
</defs>
</svg>
